# xmcd
#
# Track frame offsets: 
#        150
#        19292
#        39506
#        59389
#        82538
#        103689
#        124710
#        143534
#        163423
#        178123
#        193216
#
# Disc length: 2756 seconds
#
# Revision: 0
# Processed by: cddbd v1.5.2PL0 Copyright (c) Steve Scherf et al.
# Submitted via: ExactAudioCopy v1.0b3
#
DISCID=910ac20b
DTITLE=Van McCoy - The Real McCoy
DYEAR=1976
DGENRE=Disco
TTITLE0=Jet Setting
TTITLE1=Love At First Sight
TTITLE2=(To Each His Own) That's My Philosophy
TTITLE3=Night Walk
TTITLE4=Sweet, Sweet Rhythm
TTITLE5=Theme From Star Trek
TTITLE6=Party
TTITLE7=African Symphony
TTITLE8=Night Walk (Radio Version)
TTITLE9=Party (Radio Version)
TTITLE10=African Symphony (Radio Version)
EXTD=
EXTT0=
EXTT1=
EXTT2=
EXTT3=
EXTT4=
EXTT5=
EXTT6=
EXTT7=
EXTT8=
EXTT9=
EXTT10=
PLAYORDER=
